<?xml version="1.0" encoding="UTF-8" standalone="no" ?>
<!DOCTYPE svg PUBLIC "-//W3C//DTD SVG 1.1//EN" "http://www.w3.org/Graphics/SVG/1.1/DTD/svg11.dtd">
<svg xmlns="http://www.w3.org/2000/svg" xmlns:xlink="http://www.w3.org/1999/xlink" version="1.1" width="1080" height="1080" viewBox="0 0 1080 1080" xml:space="preserve">
<desc>Created with Fabric.js 5.2.4</desc>
<defs>
</defs>
<g transform="matrix(1 0 0 1 540 540)" id="ffe126ae-ab58-4259-b1ad-abde02ba6fcf"  >
</g>
<g transform="matrix(1 0 0 1 540 540)" id="6fd354e9-5f92-4e30-8c56-2a596ee0f1e2"  >
<rect style="stroke: none; stroke-width: 1; stroke-dasharray: none; stroke-linecap: butt; stroke-dashoffset: 0; stroke-linejoin: miter; stroke-miterlimit: 4; fill: rgb(255,255,255); fill-rule: nonzero; opacity: 1; visibility: hidden;" vector-effect="non-scaling-stroke"  x="-540" y="-540" rx="0" ry="0" width="1080" height="1080" />
</g>
<g transform="matrix(7.63 0 0 7.76 540 540)"  >
<path style="stroke: rgb(149,154,49); stroke-width: 1; stroke-dasharray: none; stroke-linecap: butt; stroke-dashoffset: 0; stroke-linejoin: miter; stroke-miterlimit: 4; fill: rgb(246,255,77); fill-rule: nonzero; opacity: 1;" vector-effect="non-scaling-stroke"  transform=" translate(-50, -49.9)" d="M 87 25.3 C 86.4 24.400000000000002 85.4 23.900000000000002 84.3 24 C 83.2 24.1 82.3 24.8 81.8 25.7 C 80.7 28.099999999999998 78.3 29.599999999999998 75.7 29.599999999999998 C 72 29.599999999999998 69 26.599999999999998 69 22.9 L 69 22.599999999999998 C 69 21.299999999999997 68.2 20.099999999999998 67 19.7 C 65.8 19.3 65 18.099999999999998 65 16.9 C 65 15.7 65.7 14.599999999999998 66.9 14.099999999999998 C 68 13.599999999999998 68.80000000000001 12.499999999999998 68.80000000000001 11.299999999999997 C 68.80000000000001 10.099999999999998 68.10000000000001 8.999999999999996 66.9 8.499999999999996 C 61.50000000000001 6.299999999999996 55.900000000000006 5.099999999999996 50.00000000000001 5.099999999999996 C 25.6 5.3 5.7 25.4 5.7 50 C 5.7 74.6 25.599999999999998 94.7 50 94.7 C 74.4 94.7 94.3 74.7 94.3 50 C 94.3 41.2 91.8 32.7 87 25.3 z M 50 88.7 C 28.9 88.7 11.700000000000003 71.4 11.700000000000003 50 C 11.700000000000003 28.7 28.900000000000002 11.299999999999997 50 11.299999999999997 C 53.4 11.299999999999997 56.8 11.799999999999997 60.1 12.699999999999998 C 59.4 14 59 15.5 59 17 C 59 20.1 60.6 22.9 63.1 24.5 C 63.9 30.8 69.2 35.6 75.7 35.6 C 78.9 35.6 81.9 34.4 84.2 32.300000000000004 C 87 37.7 88.4 43.7 88.4 49.900000000000006 C 88.3 71.3 71.1 88.7 50 88.7 z" stroke-linecap="round" />
</g>
<g transform="matrix(7.63 0 0 7.76 336.18 511.76)"  >
<path style="stroke: rgb(149,154,49); stroke-width: 1; stroke-dasharray: none; stroke-linecap: butt; stroke-dashoffset: 0; stroke-linejoin: miter; stroke-miterlimit: 4; fill: rgb(246,255,77); fill-rule: nonzero; opacity: 1;" vector-effect="non-scaling-stroke"  transform=" translate(-28.8, -44.8)" d="M 34.5 44.8 C 34.5 41.699999999999996 32 39.099999999999994 28.8 39.099999999999994 C 25.7 39.099999999999994 23.1 41.599999999999994 23.1 44.8 C 23.1 47.9 25.6 50.5 28.8 50.5 C 32 50.5 34.5 48 34.5 44.8 z" stroke-linecap="round" />
</g>
<g transform="matrix(7.63 0 0 7.76 724.2 577.56)"  >
<path style="stroke: rgb(149,154,49); stroke-width: 1; stroke-dasharray: none; stroke-linecap: butt; stroke-dashoffset: 0; stroke-linejoin: miter; stroke-miterlimit: 4; fill: rgb(246,255,77); fill-rule: nonzero; opacity: 1;" vector-effect="non-scaling-stroke"  transform=" translate(-72.8, -63.9)" d="M 72.8 58.2 C 69.7 58.2 67.1 60.7 67.1 63.900000000000006 C 67.1 67 69.6 69.60000000000001 72.8 69.60000000000001 C 75.89999999999999 69.60000000000001 78.5 67.10000000000001 78.5 63.900000000000006 C 78.5 60.7 76 58.2 72.8 58.2 z" stroke-linecap="round" />
</g>
<g transform="matrix(7.63 0 0 7.76 540 724.94)"  >
<path style="stroke: rgb(149,154,49); stroke-width: 1; stroke-dasharray: none; stroke-linecap: butt; stroke-dashoffset: 0; stroke-linejoin: miter; stroke-miterlimit: 4; fill: rgb(246,255,77); fill-rule: nonzero; opacity: 1;" vector-effect="non-scaling-stroke"  transform=" translate(-37.8, -71.9)" d="M 37.8 66.2 C 34.699999999999996 66.2 32.099999999999994 68.7 32.099999999999994 71.9 C 32.099999999999994 75 34.599999999999994 77.60000000000001 37.8 77.60000000000001 C 40.9 77.60000000000001 43.5 75.10000000000001 43.5 71.9 C 43.5 68.7 41 66.2 37.8 66.2 z" stroke-linecap="round" />
</g>
<g transform="matrix(7.63 0 0 7.76 497.55 339)"  >
<path style="stroke: rgb(149,154,49); stroke-width: 1; stroke-dasharray: none; stroke-linecap: butt; stroke-dashoffset: 0; stroke-linejoin: miter; stroke-miterlimit: 4; fill: rgb(246,255,77); fill-rule: nonzero; opacity: 1;" vector-effect="non-scaling-stroke"  transform=" translate(-46.8, -21.9)" d="M 46.8 16.2 C 43.699999999999996 16.2 41.099999999999994 18.7 41.099999999999994 21.9 C 41.099999999999994 25 43.599999999999994 27.599999999999998 46.8 27.599999999999998 C 49.9 27.599999999999998 52.5 25.099999999999998 52.5 21.9 C 52.5 18.7 50 16.2 46.8 16.2 z" stroke-linecap="round" />
</g>
<g transform="matrix(7.63 0 0 7.76 540 518.99)"  >
<path style="stroke: rgb(149,154,49); stroke-width: 1; stroke-dasharray: none; stroke-linecap: butt; stroke-dashoffset: 0; stroke-linejoin: miter; stroke-miterlimit: 4; fill: rgb(246,255,77); fill-rule: nonzero; opacity: 1;" vector-effect="non-scaling-stroke"  transform=" translate(-59.8, -42.9)" d="M 59.8 37.2 C 56.699999999999996 37.2 54.099999999999994 39.7 54.099999999999994 42.900000000000006 C 54.099999999999994 46.00000000000001 56.599999999999994 48.60000000000001 59.8 48.60000000000001 C 62.9 48.60000000000001 65.5 46.10000000000001 65.5 42.900000000000006 C 65.5 39.7 63 37.2 59.8 37.2 z" stroke-linecap="round" />
</g>
<g transform="matrix(NaN NaN NaN NaN 0 0)"  >
<g style=""   >
</g>
</g>
<g transform="matrix(NaN NaN NaN NaN 0 0)"  >
<g style=""   >
</g>
</g>
<g transform="matrix(NaN NaN NaN NaN 0 0)"  >
<g style=""   >
</g>
</g>
<g transform="matrix(NaN NaN NaN NaN 0 0)"  >
<g style=""   >
</g>
</g>
<g transform="matrix(NaN NaN NaN NaN 0 0)"  >
<g style=""   >
</g>
</g>
<g transform="matrix(NaN NaN NaN NaN 0 0)"  >
<g style=""   >
</g>
</g>
<g transform="matrix(NaN NaN NaN NaN 0 0)"  >
<g style=""   >
</g>
</g>
<g transform="matrix(NaN NaN NaN NaN 0 0)"  >
<g style=""   >
</g>
</g>
</svg>