<?xml version="1.0"?>
<svg width="600" height="400" xmlns="http://www.w3.org/2000/svg" xmlns:svg="http://www.w3.org/2000/svg" preserveAspectRatio="xMidYMid meet" version="1.0">
 <g class="layer">
  <title>Layer 1</title>
  <g fill="#000000" id="svg_1" transform="matrix(0.100332 0 0 -0.1 -1.99667 0)">
   <path d="m0,-2000l0,-2000l3000,0l3000,0l0,2000l0,2000l-3000,0l-3000,0l0,-2000zm3235,1760c287,-24 498,-65 730,-140c485,-158 879,-390 1249,-738l69,-64l-161,-161l-160,-160l-93,84c-471,424 -1007,663 -1612,720c-164,15 -534,6 -677,-16c-557,-87 -1021,-309 -1461,-698l-95,-85l-161,159l-161,159l81,76c435,409 995,696 1587,814c125,25 198,34 400,53c82,8 354,6 465,-3zm-466,-1126c1,-125 5,-232 7,-238c3,-7 -14,-12 -46,-13c-73,-4 -229,-40 -344,-80c-218,-75 -446,-209 -630,-369l-88,-77l-160,159l-159,159l83,79c316,302 756,512 1217,581c58,9 107,18 110,20c2,3 5,5 6,5c0,0 2,-102 4,-226zm563,201c244,-36 456,-103 683,-214c207,-102 376,-219 565,-390l55,-50l-162,-163l-163,-163l-47,46c-176,169 -444,330 -682,408c-108,36 -336,85 -364,77c-15,-4 -18,0 -14,17c3,12 7,120 8,239c1,119 5,215 9,213c4,-2 54,-11 112,-20zm-342,-1195l200,0l0,149l0,149l93,-20c243,-52 481,-174 660,-339l48,-44l-160,-159c-103,-103 -164,-157 -173,-152c-7,3 -42,31 -78,61c-83,69 -210,136 -325,171c-82,25 -105,28 -255,28c-142,1 -177,-2 -250,-22c-120,-32 -252,-100 -355,-183l-88,-71l-158,158l-159,159l52,52c151,153 397,282 643,338l100,22l3,-148l3,-149l199,0zm153,-778c70,-31 149,-111 183,-185c25,-54 29,-74 29,-152c0,-82 -3,-97 -32,-156c-39,-79 -102,-140 -181,-177c-49,-23 -70,-27 -147,-27c-78,0 -98,4 -152,29c-74,34 -154,113 -184,183c-27,60 -36,174 -19,243c26,108 131,220 241,256c64,20 201,14 262,-14z" fill="#ff0000" id="svg_2"/>
  </g>
 </g>
</svg>